<?xml version="1.0" encoding="iso-8859-1"?>
<!-- Generator: Adobe Illustrator 19.0.0, SVG Export Plug-In . SVG Version: 6.00 Build 0)  -->
<svg version="1.1" id="Layer_1" xmlns="http://www.w3.org/2000/svg" xmlns:xlink="http://www.w3.org/1999/xlink" x="0px" y="0px"
	 viewBox="0 0 512 512" style="enable-background:new 0 0 512 512;" xml:space="preserve">
<g transform="translate(1 1)">
	<path style="fill:#FFDD09;" d="M459.8,502.467L459.8,502.467c-23.893,0-42.667-18.773-42.667-42.667V127H485.4
		c9.387,0,17.067,7.68,17.067,17.067V459.8C502.467,483.693,483.693,502.467,459.8,502.467"/>
	<path style="fill:#FD9808;" d="M417.133,459.8v-42.667v-204.8V24.6c0-9.387-7.68-17.067-17.067-17.067H24.6
		c-9.387,0-17.067,7.68-17.067,17.067v435.2c0,23.893,18.773,42.667,42.667,42.667h409.6
		C435.907,502.467,417.133,483.693,417.133,459.8"/>
	<path style="fill:#FFDD09;" d="M390.68,459.8v-42.667v-204.8V24.6c0-9.387-6.827-17.067-16.213-17.067H23.747
		c-9.387,0-16.213,7.68-16.213,17.067v435.2c0,23.893,17.92,42.667,40.107,42.667h383.147
		C408.6,502.467,390.68,483.693,390.68,459.8"/>
	<path style="fill:#FFFFFF;" d="M33.133,459.8V24.6c0-9.387,6.827-17.067,16.213-17.067h-25.6c-9.387,0-16.213,7.68-16.213,17.067
		v435.2c0,23.893,17.92,42.667,40.107,42.667h25.6C51.053,502.467,33.133,483.693,33.133,459.8"/>
	<polygon style="fill:#15A143;" points="50.2,101.4 374.467,101.4 374.467,50.2 50.2,50.2 	"/>
	<polygon style="fill:#1CD759;" points="50.2,101.4 348.867,101.4 348.867,50.2 50.2,50.2 	"/>
	<path d="M459.8,511c-28.16,0-51.2-23.04-51.2-51.2V127c0-5.12,3.413-8.533,8.533-8.533H485.4c14.507,0,25.6,11.093,25.6,25.6V459.8
		C511,487.96,487.96,511,459.8,511z M425.667,135.533V459.8c0,18.773,15.36,34.133,34.133,34.133s34.133-15.36,34.133-34.133
		V144.067c0-5.12-3.413-8.533-8.533-8.533H425.667z"/>
	<path d="M459.8,511H50.2C22.04,511-1,487.96-1,459.8V24.6C-1,10.093,10.093-1,24.6-1h375.467c14.507,0,25.6,11.093,25.6,25.6v435.2
		c0,18.773,15.36,34.133,34.133,34.133c5.12,0,8.533,3.413,8.533,8.533C468.333,507.587,464.92,511,459.8,511z M24.6,16.067
		c-5.12,0-8.533,3.413-8.533,8.533v435.2c0,18.773,15.36,34.133,34.133,34.133h371.2c-8.533-9.387-12.8-21.333-12.8-34.133V24.6
		c0-5.12-3.413-8.533-8.533-8.533H24.6z"/>
	<path d="M374.467,109.933H50.2c-5.12,0-8.533-3.413-8.533-8.533V50.2c0-5.12,3.413-8.533,8.533-8.533h324.267
		c5.12,0,8.533,3.413,8.533,8.533v51.2C383,106.52,379.587,109.933,374.467,109.933z M58.733,92.867h307.2V58.733h-307.2V92.867z"/>
	<path d="M374.467,152.6H50.2c-5.12,0-8.533-3.413-8.533-8.533c0-5.12,3.413-8.533,8.533-8.533h324.267
		c5.12,0,8.533,3.413,8.533,8.533C383,149.187,379.587,152.6,374.467,152.6z"/>
	<path d="M451.267,400.067h-34.133c-5.12,0-8.533-3.413-8.533-8.533s3.413-8.533,8.533-8.533h34.133c5.12,0,8.533,3.413,8.533,8.533
		S456.387,400.067,451.267,400.067z"/>
	<path d="M468.333,365.933h-51.2c-5.12,0-8.533-3.413-8.533-8.533s3.413-8.533,8.533-8.533h51.2c5.12,0,8.533,3.413,8.533,8.533
		S473.453,365.933,468.333,365.933z"/>
	<path d="M451.267,468.333h-34.133c-5.12,0-8.533-3.413-8.533-8.533s3.413-8.533,8.533-8.533h34.133c5.12,0,8.533,3.413,8.533,8.533
		S456.387,468.333,451.267,468.333z"/>
	<path d="M468.333,434.2h-51.2c-5.12,0-8.533-3.413-8.533-8.533s3.413-8.533,8.533-8.533h51.2c5.12,0,8.533,3.413,8.533,8.533
		S473.453,434.2,468.333,434.2z"/>
	<path d="M451.267,263.533h-34.133c-5.12,0-8.533-3.413-8.533-8.533s3.413-8.533,8.533-8.533h34.133c5.12,0,8.533,3.413,8.533,8.533
		S456.387,263.533,451.267,263.533z"/>
	<path d="M468.333,229.4h-51.2c-5.12,0-8.533-3.413-8.533-8.533c0-5.12,3.413-8.533,8.533-8.533h51.2
		c5.12,0,8.533,3.413,8.533,8.533C476.867,225.987,473.453,229.4,468.333,229.4z"/>
	<path d="M451.267,331.8h-34.133c-5.12,0-8.533-3.413-8.533-8.533c0-5.12,3.413-8.533,8.533-8.533h34.133
		c5.12,0,8.533,3.413,8.533,8.533C459.8,328.387,456.387,331.8,451.267,331.8z"/>
	<path d="M468.333,297.667h-51.2c-5.12,0-8.533-3.413-8.533-8.533c0-5.12,3.413-8.533,8.533-8.533h51.2
		c5.12,0,8.533,3.413,8.533,8.533C476.867,294.253,473.453,297.667,468.333,297.667z"/>
	<path d="M75.8,280.6c-5.12,0-8.533-3.413-8.533-8.533v-59.733c0-5.12,3.413-8.533,8.533-8.533c5.12,0,8.533,3.413,8.533,8.533
		v59.733C84.333,277.187,80.92,280.6,75.8,280.6z"/>
	<path d="M127,280.6c-5.12,0-8.533-3.413-8.533-8.533v-59.733c0-5.12,3.413-8.533,8.533-8.533s8.533,3.413,8.533,8.533v59.733
		C135.533,277.187,132.12,280.6,127,280.6z"/>
	<path d="M152.6,246.467c-2.56,0-4.267-0.853-5.973-2.56L101.4,198.68l-45.227,45.227c-3.413,3.413-8.533,3.413-11.947,0
		s-3.413-8.533,0-11.947l51.2-51.2c3.413-3.413,8.533-3.413,11.947,0l51.2,51.2c3.413,3.413,3.413,8.533,0,11.947
		C156.867,245.613,155.16,246.467,152.6,246.467z"/>
	<path d="M348.867,434.2c-5.12,0-8.533-3.413-8.533-8.533v-59.733c0-5.12,3.413-8.533,8.533-8.533c5.12,0,8.533,3.413,8.533,8.533
		v59.733C357.4,430.787,353.987,434.2,348.867,434.2z"/>
	<path d="M297.667,434.2c-5.12,0-8.533-3.413-8.533-8.533v-59.733c0-5.12,3.413-8.533,8.533-8.533s8.533,3.413,8.533,8.533v59.733
		C306.2,430.787,302.787,434.2,297.667,434.2z"/>
	<path d="M374.467,400.067c-2.56,0-4.267-0.853-5.973-2.56l-45.227-45.227l-45.227,45.227c-3.413,3.413-8.533,3.413-11.947,0
		c-3.413-3.413-3.413-8.533,0-11.947l51.2-51.2c3.413-3.413,8.533-3.413,11.947,0l51.2,51.2c3.413,3.413,3.413,8.533,0,11.947
		C378.733,399.213,377.027,400.067,374.467,400.067z"/>
	<path d="M195.267,195.267c-5.12,0-8.533-3.413-8.533-8.533c0-5.12,3.413-8.533,8.533-8.533h102.4l0,0
		c5.12,0,8.533,3.413,8.533,8.533c0,5.12-3.413,8.533-8.533,8.533H195.267L195.267,195.267z"/>
	<path d="M374.467,195.267H331.8c-5.12,0-8.533-3.413-8.533-8.533c0-5.12,3.413-8.533,8.533-8.533h42.667
		c5.12,0,8.533,3.413,8.533,8.533C383,191.853,379.587,195.267,374.467,195.267z"/>
	<path d="M195.267,237.933c-5.12,0-8.533-3.413-8.533-8.533c0-5.12,3.413-8.533,8.533-8.533h25.6l0,0
		c5.12,0,8.533,3.413,8.533,8.533c0,5.12-3.413,8.533-8.533,8.533H195.267L195.267,237.933z"/>
	<path d="M374.467,237.933H255c-5.12,0-8.533-3.413-8.533-8.533c0-5.12,3.413-8.533,8.533-8.533h119.467
		c5.12,0,8.533,3.413,8.533,8.533C383,234.52,379.587,237.933,374.467,237.933z"/>
	<path d="M331.8,280.6c-5.12,0-8.533-3.413-8.533-8.533s3.413-8.533,8.533-8.533h42.667l0,0c5.12,0,8.533,3.413,8.533,8.533
		s-3.413,8.533-8.533,8.533H331.8L331.8,280.6z"/>
	<path d="M297.667,280.6h-102.4c-5.12,0-8.533-3.413-8.533-8.533s3.413-8.533,8.533-8.533h102.4c5.12,0,8.533,3.413,8.533,8.533
		S302.787,280.6,297.667,280.6z"/>
	<path d="M50.2,348.867c-5.12,0-8.533-3.413-8.533-8.533c0-5.12,3.413-8.533,8.533-8.533h110.933l0,0
		c5.12,0,8.533,3.413,8.533,8.533c0,5.12-3.413,8.533-8.533,8.533H50.2L50.2,348.867z"/>
	<path d="M229.4,348.867h-34.133c-5.12,0-8.533-3.413-8.533-8.533c0-5.12,3.413-8.533,8.533-8.533H229.4
		c5.12,0,8.533,3.413,8.533,8.533C237.933,345.453,234.52,348.867,229.4,348.867z"/>
	<path d="M84.333,391.533H50.2c-5.12,0-8.533-3.413-8.533-8.533c0-5.12,3.413-8.533,8.533-8.533h34.133
		c5.12,0,8.533,3.413,8.533,8.533C92.867,388.12,89.453,391.533,84.333,391.533z"/>
	<path d="M229.4,391.533H118.467c-5.12,0-8.533-3.413-8.533-8.533c0-5.12,3.413-8.533,8.533-8.533H229.4
		c5.12,0,8.533,3.413,8.533,8.533C237.933,388.12,234.52,391.533,229.4,391.533z"/>
	<path d="M229.4,434.2h-34.133c-5.12,0-8.533-3.413-8.533-8.533s3.413-8.533,8.533-8.533H229.4c5.12,0,8.533,3.413,8.533,8.533
		S234.52,434.2,229.4,434.2z"/>
	<path d="M161.133,434.2H50.2c-5.12,0-8.533-3.413-8.533-8.533s3.413-8.533,8.533-8.533h110.933c5.12,0,8.533,3.413,8.533,8.533
		S166.253,434.2,161.133,434.2z"/>
</g>
<g>
</g>
<g>
</g>
<g>
</g>
<g>
</g>
<g>
</g>
<g>
</g>
<g>
</g>
<g>
</g>
<g>
</g>
<g>
</g>
<g>
</g>
<g>
</g>
<g>
</g>
<g>
</g>
<g>
</g>
</svg>
